<?xml version="1.0" standalone="no"?>
<!DOCTYPE svg PUBLIC "-//W3C//DTD SVG 20010904//EN"
 "http://www.w3.org/TR/2001/REC-SVG-20010904/DTD/svg10.dtd">
<svg version="1.0" xmlns="http://www.w3.org/2000/svg"
 width="630.000000pt" height="630.000000pt" viewBox="0 0 630.000000 630.000000"
 preserveAspectRatio="xMidYMid meet">
<metadata>
Created by potrace 1.14, written by Peter Selinger 2001-2017
</metadata>
<g transform="translate(0.000000,630.000000) scale(0.100000,-0.100000)"
fill="#000000" stroke="none">
<path d="M368 5775 c-1 0 -2 -1181 -3 -2625 l-2 -2626 926 3 c509 1 969 4
1021 7 290 15 387 21 470 31 25 3 69 7 96 10 61 4 186 20 229 29 11 2 43 7 70
10 61 9 254 49 315 67 25 7 48 13 53 15 4 1 8 2 10 4 1 1 9 3 17 5 21 4 176
59 225 80 47 19 251 120 280 138 52 32 191 122 200 129 6 5 35 28 65 51 30 23
68 53 85 67 38 32 243 238 270 271 72 89 98 123 148 197 31 45 57 85 57 88 0
3 16 29 35 59 19 30 32 55 29 55 -3 0 3 12 14 27 43 64 169 392 185 488 3 17
11 46 17 65 6 19 13 51 16 70 2 19 6 46 9 60 11 55 15 75 21 129 3 31 8 65 10
76 17 85 25 538 11 685 -15 174 -18 190 -53 375 -16 83 -75 298 -93 340 -5 11
-19 47 -32 80 -12 33 -27 69 -33 80 -6 11 -11 22 -11 25 -1 5 -50 103 -81 160
-11 19 -22 37 -26 38 -5 2 -8 9 -8 15 0 6 -28 52 -62 102 -64 92 -72 104 -98
134 -8 9 -28 35 -45 56 -37 49 -244 258 -304 305 -24 19 -49 41 -56 47 -44 42
-287 193 -398 247 -192 93 -434 177 -612 211 -22 5 -44 9 -50 10 -5 2 -26 5
-45 9 -19 3 -46 8 -60 10 -36 7 -100 16 -140 22 -129 16 -194 24 -255 29 -38
3 -86 8 -105 10 -19 2 -86 6 -148 10 -62 3 -156 8 -210 11 -69 4 -1940 13
-1954 9z m1992 -1029 c69 -4 136 -9 150 -11 14 -2 45 -6 70 -9 25 -3 56 -8 70
-11 14 -3 34 -7 46 -9 105 -20 309 -83 374 -116 102 -51 158 -82 181 -97 14
-10 39 -27 56 -38 82 -54 196 -165 273 -265 11 -14 23 -29 27 -35 18 -23 83
-137 83 -146 0 -5 5 -9 10 -9 6 0 10 -8 10 -18 0 -10 4 -22 9 -27 23 -26 101
-265 116 -360 4 -22 9 -49 11 -60 44 -255 35 -626 -22 -873 -16 -69 -62 -221
-72 -237 -4 -5 -7 -13 -7 -16 0 -7 -32 -74 -52 -109 -8 -14 -20 -37 -26 -52
-6 -16 -15 -28 -19 -28 -4 0 -8 -7 -8 -15 0 -8 -4 -15 -10 -15 -5 0 -10 -5
-10 -11 0 -29 -156 -204 -252 -281 -155 -126 -399 -246 -557 -275 -13 -2 -32
-8 -43 -14 -10 -5 -18 -8 -18 -5 0 2 -26 -2 -57 -9 -32 -7 -83 -16 -114 -19
-31 -4 -66 -8 -77 -11 -54 -10 -221 -16 -485 -16 -161 0 -297 0 -302 0 -7 1
-10 541 -10 1601 l0 1599 35 3 c60 5 488 1 620 -6z"/>
<path d="M4989 1780 c0 -14 0 -295 -1 -625 l-1 -600 349 0 c192 0 367 3 390 7
176 30 352 165 434 332 66 135 68 149 69 551 l1 361 -620 -1 -620 0 -1 -25z"/>
</g>
</svg>
